<svg id="Layer_1" data-name="Layer 1" xmlns="http://www.w3.org/2000/svg" viewBox="0 0 482.63 110.33"><defs><style>.cls-1{fill:#17aaec}</style></defs><title>logo</title><path class="cls-1" d="M335.16 192a6.46 6.46 0 1 0-1.89 4.6 6.26 6.26 0 0 0 1.89-4.6zm15.14-19.47q0 16.83-5.1 29.1T328.06 226q-5.48 5.41-13.18 11.9l-1.35 25.62a2.47 2.47 0 0 1-1.08 1.76l-26 15.14a2.14 2.14 0 0 1-1.08.27 2.43 2.43 0 0 1-1.55-.61l-4.33-4.33a2.15 2.15 0 0 1-.54-2.16l5.78-18.59-19-19-18.66 5.75a2.05 2.05 0 0 1-.61.07 2.11 2.11 0 0 1-1.55-.61l-4.33-4.33a2.05 2.05 0 0 1-.34-2.64l15.14-26a2.47 2.47 0 0 1 1.76-1.08l25.62-1.35q6.49-7.71 11.9-13.18 12.71-12.64 24.2-17.44t29.14-4.8a2.27 2.27 0 0 1 1.62.64 2 2 0 0 1 .69 1.54zM421.54 244.14h-11.68L394 206.91h-.46a45.19 45.19 0 0 1 .88 9.14v28.09h-8.86v-51.4h11.74l15.7 36.85h.39a50.08 50.08 0 0 1-.67-8.79v-28.06h8.79v51.4zM444.49 244.84a14.11 14.11 0 0 1-11.58-5.22q-4.24-5.22-4.24-14.78t3.83-15.15a12.33 12.33 0 0 1 10.69-5.45 12.18 12.18 0 0 1 10.09 4.66Q457 213.56 457 222v5h-18.84q.11 5.24 2.14 7.79a6.81 6.81 0 0 0 5.63 2.55 18.23 18.23 0 0 0 9.35-2.85v7.7a20.55 20.55 0 0 1-10.79 2.65zm-1.37-33.4a3.82 3.82 0 0 0-3.3 2.13 14.31 14.31 0 0 0-1.51 6.59h9.49a14.19 14.19 0 0 0-1.3-6.5 3.75 3.75 0 0 0-3.38-2.22zM490.44 244.14l-3.9-22.75-1.37-9.6H485q-.53 4.68-.84 6.77t-4.46 25.58h-12L459.89 205h9.39l3.59 21.59q.63 3.59 1.16 10.51h.21q.07-1.86.49-5.68t.6-4.9l3.86-21.52h12l3.81 21.56a95.06 95.06 0 0 1 1.16 10.51h.14q.49-6.29 1.23-10.51L501.3 205h9.14l-7.84 39.16h-12.16zM561.53 208.56q0 8.19-4.13 12.57t-11.94 4.38h-2.39v18.63h-9.56v-51.4h13q15.02 0 15.02 15.82zm-18.46 8.65h1.83a6.66 6.66 0 0 0 5.24-1.93q1.72-1.93 1.72-6.33 0-4-1.58-6a5.92 5.92 0 0 0-4.89-2h-2.32v16.21zM584.13 204.24a11 11 0 0 1 3.38.53l-1.09 9.07a7.79 7.79 0 0 0-2.57-.35 6 6 0 0 0-5.24 2.69q-1.83 2.69-1.83 7.82v20.14h-9.35V205h7.7l1.05 6.12h.32a14.2 14.2 0 0 1 3.38-5.27 6.3 6.3 0 0 1 4.25-1.61zM620.7 224.49q0 9.63-4.08 15a14.23 14.23 0 0 1-19.12 2.9 15.58 15.58 0 0 1-5.31-7.08 28.8 28.8 0 0 1-1.86-10.81q0-9.53 4-14.89a13.26 13.26 0 0 1 11.21-5.36 13.07 13.07 0 0 1 11 5.47q4.16 5.45 4.16 14.77zm-20.81 0q0 6.12 1.34 9.25t4.29 3.13q5.63 0 5.63-12.37 0-6.15-1.35-9.19a4.53 4.53 0 0 0-8.56 0q-1.36 3.03-1.36 9.18zM626.11 261.44a11.84 11.84 0 0 1-4.89-.88v-7.77a8.33 8.33 0 0 0 3 .63q3.3 0 3.3-6V205h9.35v43.7q0 6.12-2.83 9.44a9.89 9.89 0 0 1-7.93 3.3zm1.09-66.69a5 5 0 0 1 1.35-3.67 5.06 5.06 0 0 1 3.74-1.35 4.92 4.92 0 0 1 3.69 1.37 5 5 0 0 1 1.34 3.66 4.92 4.92 0 0 1-1.37 3.69 5 5 0 0 1-3.66 1.34 5.22 5.22 0 0 1-3.69-1.3 4.82 4.82 0 0 1-1.4-3.74zM659.3 244.84a14.11 14.11 0 0 1-11.58-5.22q-4.24-5.22-4.24-14.78t3.83-15.15a12.33 12.33 0 0 1 10.69-5.45 12.18 12.18 0 0 1 10.09 4.66q3.69 4.66 3.69 13.06v5H653q.11 5.24 2.14 7.79a6.81 6.81 0 0 0 5.63 2.55 18.23 18.23 0 0 0 9.35-2.85v7.7a20.55 20.55 0 0 1-10.82 2.69zm-1.37-33.4a3.82 3.82 0 0 0-3.3 2.13 14.31 14.31 0 0 0-1.51 6.59h9.49a14.18 14.18 0 0 0-1.3-6.5 3.75 3.75 0 0 0-3.38-2.22zM690.9 244.84q-7 0-10.65-5.1t-3.66-15q0-10.34 3.46-15.43t10.71-5.1a17.86 17.86 0 0 1 4.57.63 15.39 15.39 0 0 1 4.29 1.83l-2.67 7.33a10.49 10.49 0 0 0-5.17-1.72 4.46 4.46 0 0 0-4.31 3.11q-1.32 3.11-1.32 9.33t1.3 9.09a4.4 4.4 0 0 0 4.25 3 13.66 13.66 0 0 0 7.35-2.46v8.23a15.19 15.19 0 0 1-8.15 2.26zM718.29 236.93a10.81 10.81 0 0 0 4.25-1v7.31q-2.29 1.58-6.86 1.58-5.1 0-7.56-3t-2.46-9.12v-20.31h-3.8v-4.18l4.89-3.37 2.39-8.3h6V205h7.1v7.42h-7.1V233q-.01 3.93 3.15 3.93z" transform="translate(-239.91 -170.41)"/></svg>