<svg viewBox="0 0 260 260" xmlns="http://www.w3.org/2000/svg">
    <path d="M243.644,20.977C243.046,18.17 240.837,15.961 238.03,15.363C223.212,12.188 211.616,12.188 200.065,12.188C152.574,12.188 124.089,37.59 102.828,71.091L54.877,71.091C46.502,71.091 38.863,75.831 35.135,83.286L12.402,128.752C8.721,136.115 14.059,144.72 22.296,144.72L66.06,144.72C63.345,150.611 60.584,156.455 57.776,162.069C56.35,164.922 56.902,168.328 59.157,170.583L88.425,199.85C90.68,202.105 94.085,202.657 96.938,201.231C102.552,198.424 108.397,195.709 114.287,192.993L114.287,236.757C114.287,244.948 122.938,250.286 130.255,246.651L175.675,223.918C183.176,220.19 187.87,212.505 187.87,204.176L187.87,156.133C221.279,134.826 246.774,106.249 246.774,58.988C246.82,47.392 246.82,35.795 243.644,20.977ZM195.279,85.817C183.084,85.817 173.19,75.923 173.19,63.728C173.19,51.533 183.084,41.639 195.279,41.639C207.474,41.639 217.368,51.533 217.368,63.728C217.368,75.923 207.474,85.817 195.279,85.817Z" />
</svg>
