<svg viewBox="0 0 500 115" xmlns="http://www.w3.org/2000/svg" style="fill-rule:evenodd;">
    <title>New Site</title>
    <path d="M44.712,28.748C55.089,12.398 68.991,0 92.17,0C97.808,0 103.467,0 110.699,1.55C112.069,1.841 113.148,2.92 113.439,4.29C114.99,11.522 114.99,17.182 114.967,22.841C114.967,45.908 102.524,59.855 86.218,70.254L86.218,93.703C86.218,97.768 83.927,101.518 80.266,103.338L58.098,114.433C54.527,116.207 50.305,113.602 50.305,109.604L50.305,88.245C47.43,89.57 44.577,90.895 41.837,92.265C40.445,92.961 38.783,92.692 37.683,91.591L23.398,77.307C22.297,76.206 22.028,74.544 22.724,73.152C24.094,70.412 25.442,67.559 26.767,64.684L5.407,64.684C1.387,64.684 -1.218,60.484 0.578,56.891L11.674,34.7C13.493,31.062 17.221,28.749 21.309,28.748L44.712,28.748ZM399,94.3C397.2,94.4 395.6,94.1 393.9,93.4L393.9,85.3C394.9,85.7 396,85.9 397,85.9C399.3,85.9 400.4,83.8 400.4,79.7L400.4,35.8L410,35.8L410,81.1C410,85.3 409.1,88.6 407.1,90.8C405.1,93.2 402.1,94.5 399,94.3ZM491.2,35.8L498.6,35.8L498.6,43.5L491.2,43.5L491.2,64.8C491.2,67.5 492.4,68.9 494.5,68.9C496.1,68.9 497.5,68.5 499,67.9L499,75.5C497.4,76.6 495.1,77.2 491.9,77.2C488.4,77.2 485.8,76.2 484,74.1C482.2,72 481.4,68.9 481.4,64.7L481.4,43.7L477.5,43.7L477.5,39.3L482.6,35.8L485,27L491.2,27L491.2,35.8ZM204.3,58.9C204.4,62.5 205.1,65.2 206.5,67C208,68.8 210.1,69.7 212.3,69.7C215.7,69.6 219.1,68.6 222,66.7L222,74.7C218.7,76.2 214.8,77.3 210.9,77.1C206.2,77.3 201.8,75.3 198.9,71.7C196,68.1 194.5,63 194.5,56.4C194.5,49.8 195.8,44.6 198.4,40.8C200.9,37.2 205,35 209.5,35.2C213.5,35 217.5,36.9 220,40.1C222.6,43.3 223.8,47.9 223.8,53.7L223.8,58.9L204.3,58.9ZM426.8,58.9C426.9,62.5 427.6,65.2 429,67C430.5,68.8 432.6,69.7 434.8,69.7C438.2,69.6 441.6,68.6 444.4,66.7L444.4,74.7C441.2,76.2 437.4,77.2 433.4,77.1C428.7,77.3 424.3,75.3 421.4,71.7C418.5,68.1 417,63 417,56.4C417,49.8 418.3,44.6 420.9,40.8C423.4,37.2 427.5,35 432,35.2C436,35 440,36.9 442.5,40.1C445.1,43.3 446.3,47.9 446.3,53.7L446.3,58.9L426.8,58.9ZM466.2,77.1C461.3,77.1 457.7,75.3 455.1,71.8C452.5,68.3 451.3,63.1 451.3,56.3C451.3,49.2 452.5,43.9 454.9,40.3C457.3,36.8 461,35 466,35C467.6,35 469.2,35.2 470.8,35.6C472.4,36 473.9,36.6 475.3,37.5L472.5,45.1C470.9,44.1 469.1,43.4 467.1,43.3C465,43.3 463.3,44.5 462.6,46.5C461.7,48.7 461.3,51.9 461.3,56.1C461.3,60.3 461.7,63.6 462.6,65.5C463.2,67.4 465,68.6 467.1,68.6C469.8,68.5 472.5,67.7 474.7,66L474.7,74.5C472.1,76.3 469.2,77.2 466.2,77.1ZM393.4,56C393.4,62.6 391.9,67.8 389.2,71.5C384.4,77.5 375.7,78.9 369.4,74.5C366.9,72.6 364.9,70 363.9,67.1C362.6,63.5 361.9,59.7 361.9,55.9C361.9,49.3 363.2,44.2 366,40.5C368.7,36.9 373,34.8 377.6,34.9C382.1,34.8 386.4,36.9 389,40.6C392,44.4 393.4,49.6 393.4,56ZM313,76.5L303.1,76.5L303.1,23.1L316.6,23.1C326.9,23.1 332.1,28.6 332.1,39.5C332.1,45.2 330.6,49.5 327.9,52.6C325.2,55.7 321,57.2 315.6,57.2L313,57.2L313,76.5ZM247.3,76.4L234.9,76.4L226.9,35.8L236.6,35.8L240.3,58.2C240.7,60.7 241.1,64.3 241.5,69.1L241.7,69.1C241.7,67.9 241.9,65.9 242.2,63.2C242.5,60.6 242.7,58.8 242.8,58.1L246.8,35.8L259.2,35.8L263.1,58.2C263.7,61.8 264.1,65.5 264.3,69.1L264.4,69.1C264.7,64.7 265.1,61.1 265.6,58.2L269.5,35.8L278.9,35.8L270.8,76.4L258.5,76.3L254.5,52.8L253,42.9L252.8,42.9C252.4,46.1 252.2,48.5 252,49.9C251.8,51.4 250.2,60.2 247.3,76.4ZM158.9,76.3L149.7,76.3L149.7,23.1L161.8,23.1L178.1,61.3L178.5,61.3C178,58.3 177.8,55.3 177.8,52.2L177.8,23.1L186.9,23.1L187.1,76.3L175,76.3L158.5,37.8L158,37.8C158.6,40.9 158.9,44.1 158.9,47.2L158.9,76.3ZM347.9,76.2L338.3,76.2L338.3,35.8L346.3,35.8L347.3,42.1L347.6,42.1C348.3,40 349.6,38.2 351.1,36.6C352.3,35.6 354,35 355.5,35C356.6,35 357.9,35.2 359,35.5L357.9,44.9C357.1,44.6 356.1,44.5 355.2,44.5C353,44.4 351,45.4 349.8,47.3C348.6,49.2 347.9,51.9 347.9,55.4L347.9,76.2ZM371.9,56C371.9,60.2 372.3,63.5 373.2,65.6C374.1,67.8 375.6,68.8 377.7,68.8C381.6,68.8 383.5,64.6 383.5,56C383.5,51.8 383,48.5 382.2,46.5C381.4,44 378.7,42.8 376.2,43.6C374.9,44.1 373.8,45.2 373.3,46.5C372.3,48.6 371.9,51.8 371.9,56ZM209.5,42.5C208,42.5 206.7,43.4 206.1,44.7C205.1,46.8 204.5,49.2 204.5,51.5L214.3,51.5C214.4,49.2 213.9,46.8 213,44.8C212.4,43.4 211,42.5 209.5,42.5ZM432,42.5C430.5,42.5 429.2,43.4 428.6,44.7C427.6,46.8 427,49.2 427,51.5L436.8,51.5C436.9,49.2 436.4,46.8 435.5,44.8C434.9,43.4 433.5,42.5 432,42.5ZM315.3,31.7C317.3,31.6 319.2,32.3 320.4,33.8C321.6,35.1 322.1,37.2 322.1,40C322.1,43 321.4,45.2 320.3,46.5C318.9,47.9 316.9,48.7 314.9,48.5L313,48.5L312.9,31.7L315.3,31.7ZM89.834,35.936C83.882,35.936 79.053,31.107 79.053,25.155C79.053,19.203 83.882,14.374 89.834,14.374C95.786,14.374 100.615,19.203 100.615,25.155C100.615,31.107 95.786,35.936 89.834,35.936ZM400.2,25.2C400.1,23.7 400.6,22.4 401.5,21.4C402.5,20.5 404,19.9 405.3,19.9C406.8,19.8 408.1,20.3 409.1,21.4C410,22.4 410.6,23.8 410.4,25.2C410.5,26.7 410,28 408.9,29C407.9,29.9 406.5,30.5 405.1,30.3C403.6,30.4 402.3,29.9 401.3,29C400.6,28.1 400.1,26.6 400.2,25.2Z" fill="#448AFF" />
</svg>
