<svg xmlns="http://www.w3.org/2000/svg" xmlns:xlink="http://www.w3.org/1999/xlink" viewBox="0 0 500 115">
    <title>New Site</title>
    <path fill="#17AAEC" d="M98.7,22.4c0-3.7-3-6.6-6.7-6.6s-6.6,3-6.6,6.7s3,6.6,6.7,6.6c1.8,0,3.4-0.7,4.7-2C98,25.9,98.7,24.1,98.7,22.4z M114.3,2.2c0,11.6-1.8,21.7-5.3,30.1c-3.5,8.5-9.4,16.9-17.7,25.3c-3.8,3.7-8.3,7.9-13.7,12.3l-1.5,26.5c-0.1,0.7-0.5,1.5-1.1,1.9L48.1,114c-0.3,0.2-0.7,0.3-1.1,0.3c-0.6,0-1.1-0.2-1.6-0.6l-4.5-4.5c-0.6-0.6-0.8-1.5-0.5-2.3l6-19.3L26.8,68L7.4,73.9C7.2,74,7,74,6.8,74c-0.6,0-1.1-0.2-1.7-0.6l-4.5-4.5C0,68.2-0.3,67,0.4,66.2L16,39.3c0.4-0.6,1-1,1.9-1.1l26.5-1.5c4.5-5.3,8.6-9.8,12.3-13.7c8.7-8.7,17.1-14.7,25.1-18c7.9-3.3,17.9-5,30.1-5c0.6,0,1.2,0.2,1.7,0.6C114.1,1,114.3,1.7,114.3,2.2L114.3,2.2z M188.1,76.3H176l-16.5-38.5H159c0.6,3.1,0.9,6.3,0.9,9.4v29.1h-9.2V23.1h12.1l16.3,38.2h0.4c-0.5-3-0.7-6-0.7-9.1V23.1h9.1L188.1,76.3L188.1,76.3z M211.9,77.1c-4.7,0.2-9.1-1.8-12-5.4s-4.4-8.7-4.4-15.3c0-6.6,1.3-11.8,3.9-15.6c2.5-3.6,6.6-5.8,11.1-5.6c4-0.2,8,1.7,10.5,4.9c2.6,3.2,3.8,7.8,3.8,13.6v5.2h-19.5c0.1,3.6,0.8,6.3,2.2,8.1c1.5,1.8,3.6,2.7,5.8,2.7c3.4-0.1,6.8-1.1,9.7-3v8C219.7,76.2,215.8,77.3,211.9,77.1z M210.5,42.5c-1.5,0-2.8,0.9-3.4,2.2c-1,2.1-1.6,4.5-1.6,6.8h9.8c0.1-2.3-0.4-4.7-1.3-6.7C213.4,43.4,212,42.5,210.5,42.5z M259.5,76.3l-4-23.5l-1.5-9.9h-0.2c-0.4,3.2-0.6,5.6-0.8,7c-0.2,1.5-1.8,10.3-4.7,26.5h-12.4l-8-40.6h9.7l3.7,22.4c0.4,2.5,0.8,6.1,1.2,10.9h0.2c0-1.2,0.2-3.2,0.5-5.9c0.3-2.6,0.5-4.4,0.6-5.1l4-22.3h12.4l3.9,22.4c0.6,3.6,1,7.3,1.2,10.9h0.1c0.3-4.4,0.7-8,1.2-10.9l3.9-22.4h9.4l-8.1,40.6L259.5,76.3L259.5,76.3z M333.1,39.5c0,5.7-1.5,10-4.2,13.1s-6.9,4.6-12.3,4.6H314v19.3h-9.9V23.1h13.5C327.9,23.1,333.1,28.6,333.1,39.5z M314,48.5h1.9c2,0.2,4-0.6,5.4-2c1.1-1.3,1.8-3.5,1.8-6.5c0-2.8-0.5-4.9-1.7-6.2c-1.2-1.5-3.1-2.2-5.1-2.1h-2.4L314,48.5L314,48.5z M356.5,35c1.1,0,2.4,0.2,3.5,0.5l-1.1,9.4c-0.8-0.3-1.8-0.4-2.7-0.4c-2.2-0.1-4.2,0.9-5.4,2.8c-1.2,1.9-1.9,4.6-1.9,8.1v20.8h-9.6V35.8h8l1,6.3h0.3c0.7-2.1,2-3.9,3.5-5.5C353.3,35.6,355,35,356.5,35z M394.4,56c0,6.6-1.5,11.8-4.2,15.5c-4.8,6-13.5,7.4-19.8,3c-2.5-1.9-4.5-4.5-5.5-7.4c-1.3-3.6-2-7.4-2-11.2c0-6.6,1.3-11.7,4.1-15.4c2.7-3.6,7-5.7,11.6-5.6c4.5-0.1,8.8,2,11.4,5.7C393,44.4,394.4,49.6,394.4,56z M372.9,56c0,4.2,0.4,7.5,1.3,9.6c0.9,2.2,2.4,3.2,4.5,3.2c3.9,0,5.8-4.2,5.8-12.8c0-4.2-0.5-7.5-1.3-9.5c-0.8-2.5-3.5-3.7-6-2.9c-1.3,0.5-2.4,1.6-2.9,2.9C373.3,48.6,372.9,51.8,372.9,56L372.9,56z M400,94.3c-1.8,0.1-3.4-0.2-5.1-0.9v-8.1c1,0.4,2.1,0.6,3.1,0.6c2.3,0,3.4-2.1,3.4-6.2V35.8h9.6v45.3c0,4.2-0.9,7.5-2.9,9.7C406.1,93.2,403.1,94.5,400,94.3z M401.2,25.2c-0.1-1.5,0.4-2.8,1.3-3.8c1-0.9,2.5-1.5,3.8-1.5c1.5-0.1,2.8,0.4,3.8,1.5c0.9,1,1.5,2.4,1.3,3.8c0.1,1.5-0.4,2.8-1.5,3.8c-1,0.9-2.4,1.5-3.8,1.3c-1.5,0.1-2.8-0.4-3.8-1.3C401.6,28.1,401.1,26.6,401.2,25.2z M434.4,77.1c-4.7,0.2-9.1-1.8-12-5.4c-2.9-3.6-4.4-8.7-4.4-15.3c0-6.6,1.3-11.8,3.9-15.6c2.5-3.6,6.6-5.8,11.1-5.6c4-0.2,8,1.7,10.5,4.9c2.6,3.2,3.8,7.8,3.8,13.6v5.2h-19.5c0.1,3.6,0.8,6.3,2.2,8.1c1.5,1.8,3.6,2.7,5.8,2.7c3.4-0.1,6.8-1.1,9.6-3v8C442.2,76.2,438.4,77.2,434.4,77.1z M433,42.5c-1.5,0-2.8,0.9-3.4,2.2c-1,2.1-1.6,4.5-1.6,6.8h9.8c0.1-2.3-0.4-4.7-1.3-6.7C435.9,43.4,434.5,42.5,433,42.5z M467.2,77.1c-4.9,0-8.5-1.8-11.1-5.3s-3.8-8.7-3.8-15.5c0-7.1,1.2-12.4,3.6-16c2.4-3.5,6.1-5.3,11.1-5.3c1.6,0,3.2,0.2,4.8,0.6c1.6,0.4,3.1,1,4.5,1.9l-2.8,7.6c-1.6-1-3.4-1.7-5.4-1.8c-2.1,0-3.8,1.2-4.5,3.2c-0.9,2.2-1.3,5.4-1.3,9.6s0.4,7.5,1.3,9.4c0.6,1.9,2.4,3.1,4.5,3.1c2.7-0.1,5.4-0.9,7.6-2.6v8.5C473.1,76.3,470.2,77.2,467.2,77.1z M495.5,68.9c1.6,0,3-0.4,4.5-1v7.6c-1.6,1.1-3.9,1.7-7.1,1.7c-3.5,0-6.1-1-7.9-3.1c-1.8-2.1-2.6-5.2-2.6-9.4v-21h-3.9v-4.4l5.1-3.5L486,27h6.2v8.8h7.4v7.7h-7.4v21.3C492.2,67.5,493.4,68.9,495.5,68.9z" />
</svg>
