<svg xmlns="http://www.w3.org/2000/svg">
    <defs>
        <symbol id="angle-down" viewBox="0 0 32 32">
            <title>Angle Down</title>
            <path fill="currentColor" d="M32,9.3c0,0.3-0.1,0.5-0.3,0.7L16.7,25c-0.2,0.2-0.5,0.3-0.7,0.3c-0.3,0-0.5-0.1-0.7-0.3L0.3,10.1C0.1,9.9,0,9.6,0,9.3c0-0.3,0.1-0.5,0.3-0.7L1.9,7c0.2-0.2,0.5-0.3,0.7-0.3c0.3,0,0.5,0.1,0.7,0.3L16,19.6L28.6,7c0.2-0.2,0.5-0.3,0.7-0.3c0.3,0,0.5,0.1,0.7,0.3l1.6,1.6C31.9,8.8,32,9.1,32,9.3z" />
        </symbol>

        <symbol id="arrow-down" viewBox="0 0 32 32">
            <title>Arrow Down</title>
            <path fill="currentColor" d="M32,15.2c0,0.7-0.3,1.3-0.8,1.8L17.9,30.5c-0.5,0.5-1.2,0.8-1.9,0.8c-0.7,0-1.3-0.3-1.8-0.8L0.8,17.1C0.3,16.6,0,16,0,15.2c0-0.7,0.3-1.3,0.8-1.9l1.5-1.5c0.5-0.5,1.2-0.8,1.9-0.8c0.7,0,1.3,0.3,1.8,0.8l6,6V3.4c0-0.7,0.3-1.3,0.8-1.8C13.3,1,14,0.8,14.7,0.8h2.6c0.7,0,1.3,0.3,1.9,0.8c0.5,0.5,0.8,1.1,0.8,1.8v14.5l6-6c0.5-0.5,1.1-0.8,1.8-0.8c0.7,0,1.3,0.3,1.9,0.8l1.5,1.5C31.7,13.9,32,14.5,32,15.2z" />
        </symbol>

        <symbol id="calendar" viewBox="0 0 32 32">
            <title>Calendar</title>
            <path fill="currentColor" d="M30.9,6.9v22.9c0,0.6-0.2,1.2-0.7,1.6c-0.5,0.5-1,0.7-1.6,0.7H3.4c-0.6,0-1.2-0.2-1.6-0.7c-0.5-0.5-0.7-1-0.7-1.6V6.9c0-0.6,0.2-1.2,0.7-1.6c0.5-0.5,1-0.7,1.6-0.7h2.3V2.9c0-0.8,0.3-1.5,0.8-2C7.1,0.3,7.8,0,8.6,0h1.1c0.8,0,1.5,0.3,2,0.8c0.6,0.6,0.8,1.2,0.8,2v1.7h6.9V2.9c0-0.8,0.3-1.5,0.8-2c0.6-0.6,1.2-0.8,2-0.8h1.1c0.8,0,1.5,0.3,2,0.8c0.6,0.6,0.8,1.2,0.8,2v1.7h2.3c0.6,0,1.2,0.2,1.6,0.7C30.6,5.7,30.9,6.2,30.9,6.9z M3.4,16.6h5.1v-5.1H3.4V16.6z M3.4,23.4h5.1v-5.7H3.4V23.4z M3.4,29.7h5.1v-5.1H3.4V29.7z M10.3,8V2.9c0-0.2-0.1-0.3-0.2-0.4C10,2.3,9.9,2.3,9.7,2.3H8.6c-0.2,0-0.3,0.1-0.4,0.2C8.1,2.6,8,2.7,8,2.9V8c0,0.2,0.1,0.3,0.2,0.4c0.1,0.1,0.2,0.2,0.4,0.2h1.1c0.2,0,0.3-0.1,0.4-0.2C10.2,8.3,10.3,8.2,10.3,8z M9.7,16.6h5.7v-5.1H9.7V16.6z M9.7,23.4h5.7v-5.7H9.7V23.4z M9.7,29.7h5.7v-5.1H9.7V29.7z M16.6,16.6h5.7v-5.1h-5.7V16.6z M16.6,23.4h5.7v-5.7h-5.7V23.4zM16.6,29.7h5.7v-5.1h-5.7V29.7z M24,8V2.9c0-0.2-0.1-0.3-0.2-0.4c-0.1-0.1-0.2-0.2-0.4-0.2h-1.1c-0.2,0-0.3,0.1-0.4,0.2c-0.1,0.1-0.2,0.2-0.2,0.4V8c0,0.2,0.1,0.3,0.2,0.4c0.1,0.1,0.2,0.2,0.4,0.2h1.1c0.2,0,0.3-0.1,0.4-0.2C23.9,8.3,24,8.2,24,8zM23.4,16.6h5.1v-5.1h-5.1V16.6z M23.4,23.4h5.1v-5.7h-5.1V23.4z M23.4,29.7h5.1v-5.1h-5.1V29.7z" />
        </symbol>

        <symbol id="calendar-check" viewBox="0 0 32 32">
            <title>Calendar</title>
            <path fill="currentColor" d="M30.9,6.9v22.9c0,0.6-0.2,1.2-0.7,1.6c-0.5,0.5-1,0.7-1.6,0.7H3.4c-0.6,0-1.2-0.2-1.6-0.7c-0.5-0.5-0.7-1-0.7-1.6V6.9,c0-0.6,0.2-1.2,0.7-1.6c0.5-0.5,1-0.7,1.6-0.7h2.3V2.9c0-0.8,0.3-1.5,0.8-2C7.1,0.3,7.8,0,8.6,0h1.1c0.8,0,1.5,0.3,2,0.8,c0.6,0.6,0.8,1.2,0.8,2v1.7h6.9V2.9c0-0.8,0.3-1.5,0.8-2c0.6-0.6,1.2-0.8,2-0.8h1.1c0.8,0,1.5,0.3,2,0.8c0.6,0.6,0.8,1.2,0.8,2v1.7,h2.3c0.6,0,1.2,0.2,1.6,0.7C30.6,5.7,30.9,6.2,30.9,6.9z M3.4,29.7h25.1V11.4H3.4V29.7z M10.3,8V2.9c0-0.2-0.1-0.3-0.2-0.4,C10,2.3,9.9,2.3,9.7,2.3H8.6c-0.2,0-0.3,0.1-0.4,0.2C8.1,2.6,8,2.7,8,2.9V8c0,0.2,0.1,0.3,0.2,0.4s0.2,0.2,0.4,0.2h1.1,c0.2,0,0.3-0.1,0.4-0.2C10.2,8.3,10.3,8.2,10.3,8z M24.4,17.2l-9.1,9.1c-0.1,0.1-0.3,0.2-0.4,0.2c-0.2,0-0.3-0.1-0.4-0.2l-5.1-5.1,c-0.1-0.1-0.2-0.3-0.2-0.4c0-0.2,0.1-0.3,0.2-0.4l0.8-0.8c0.1-0.1,0.2-0.2,0.4-0.2c0.2,0,0.3,0.1,0.4,0.2l3.9,3.9l7.9-7.9,c0.1-0.1,0.3-0.2,0.4-0.2c0.2,0,0.3,0.1,0.4,0.2l0.8,0.8c0.1,0.1,0.2,0.2,0.2,0.4S24.5,17.1,24.4,17.2z M24,8V2.9,c0-0.2-0.1-0.3-0.2-0.4c-0.1-0.1-0.2-0.2-0.4-0.2h-1.1c-0.2,0-0.3,0.1-0.4,0.2c-0.1,0.1-0.2,0.2-0.2,0.4V8c0,0.2,0.1,0.3,0.2,0.4,s0.2,0.2,0.4,0.2h1.1c0.2,0,0.3-0.1,0.4-0.2S24,8.2,24,8z" />
        </symbol>

        <symbol id="check" viewBox="0 0 32 32">
            <title>Checkmark</title>
            <path fill="currentColor" d="M32,8.5c0,0.5-0.2,1-0.6,1.4L16.5,24.9l-2.8,2.8c-0.4,0.4-0.9,0.6-1.4,0.6c-0.5,0-1-0.2-1.4-0.6l-2.8-2.8l-7.5-7.5,C0.2,17,0,16.6,0,16c0-0.6,0.2-1,0.6-1.4l2.8-2.8c0.4-0.4,0.9-0.6,1.4-0.6c0.5,0,1,0.2,1.4,0.6l6.1,6.1L25.8,4.3,c0.4-0.4,0.9-0.6,1.4-0.6c0.6,0,1,0.2,1.4,0.6l2.8,2.8C31.8,7.5,32,8,32,8.5z" />
        </symbol>

        <symbol id="circle" viewBox="0 0 32 32">
            <title>Circle</title>
            <path fill="currentColor" d="M29.9,8c1.4,2.5,2.1,5.1,2.1,8s-0.7,5.6-2.1,8s-3.4,4.4-5.8,5.8S18.9,32,16,32c-2.9,0-5.6-0.7-8-2.1S3.6,26.5,2.1,24,C0.7,21.6,0,18.9,0,16s0.7-5.6,2.1-8C3.6,5.5,5.5,3.6,8,2.1S13.1,0,16,0c2.9,0,5.6,0.7,8,2.1S28.4,5.5,29.9,8z" />
        </symbol>

        <symbol id="clock" viewBox="0 0 32 32">
            <title>Clock</title>
            <path fill="currentColor" d="M29.9,8c1.4,2.5,2.1,5.1,2.1,8s-0.7,5.6-2.1,8s-3.4,4.4-5.8,5.8S18.9,32,16,32s-5.6-0.7-8-2.1S3.6,26.5,2.1,24S0,18.9,0,16s0.7-5.6,2.1-8S5.5,3.6,8,2.1S13.1,0,16,0s5.6,0.7,8,2.1S28.4,5.5,29.9,8z M25.8,21.7c1-1.7,1.5-3.6,1.5-5.7s-0.5-4-1.5-5.7c-1-1.7-2.4-3.1-4.1-4.1c-1.7-1-3.6-1.5-5.7-1.5s-4,0.5-5.7,1.5c-1.7,1-3.1,2.4-4.1,4.1c-1,1.7-1.5,3.6-1.5,5.7s0.5,3.9,1.5,5.7c1,1.7,2.4,3.1,4.1,4.1c1.7,1,3.6,1.5,5.7,1.5s3.9-0.5,5.7-1.5C23.4,24.8,24.8,23.4,25.8,21.7z M18.7,8.7V18c0,0.2-0.1,0.4-0.2,0.5c-0.1,0.1-0.3,0.2-0.5,0.2h-6.7c-0.2,0-0.4-0.1-0.5-0.2c-0.1-0.1-0.2-0.3-0.2-0.5v-1.3c0-0.2,0.1-0.4,0.2-0.5c0.1-0.1,0.3-0.2,0.5-0.2H16V8.7c0-0.2,0.1-0.4,0.2-0.5S16.5,8,16.7,8H18c0.2,0,0.4,0.1,0.5,0.2S18.7,8.5,18.7,8.7z" />
        </symbol>

        <symbol id="comment" viewBox="0 0 32 32">
            <title>Comment</title>
            <path fill="currentColor" d="M29.9,8c1.4,1.8,2.1,3.7,2.1,5.7c0,2.1-0.7,4-2.1,5.7c-1.4,1.8-3.4,3.1-5.8,4.2c-2.5,1-5.1,1.5-8,1.5c-0.8,0-1.7,0-2.6-0.1c-2.4,2.1-5.1,3.5-8.2,4.3c-0.6,0.2-1.3,0.3-2,0.4c-0.2,0-0.4,0-0.5-0.2c-0.2-0.1-0.3-0.3-0.3-0.5v0c0,0,0-0.1,0-0.2c0-0.1,0-0.2,0-0.2c0,0,0-0.1,0.1-0.2c0.1-0.1,0.1-0.1,0.1-0.2c0,0,0.1-0.1,0.1-0.2C2.7,28.1,2.8,28,2.8,28c0.1-0.1,0.3-0.3,0.6-0.6c0.3-0.3,0.5-0.5,0.6-0.7c0.1-0.1,0.3-0.4,0.6-0.7c0.2-0.3,0.4-0.6,0.6-0.9c0.1-0.3,0.3-0.6,0.5-1.1s0.3-0.9,0.5-1.4c-1.9-1.1-3.3-2.4-4.4-3.9c-1.1-1.6-1.6-3.2-1.6-5c0-1.5,0.4-3,1.3-4.4c0.8-1.4,2-2.6,3.4-3.7c1.4-1,3.1-1.8,5.1-2.4c2-0.6,4-0.9,6.2-0.9c2.9,0,5.6,0.5,8,1.5S28.4,6.2,29.9,8z" />
        </symbol>

        <symbol id="facebook" viewBox="0 0 32 32">
            <title>Facebook</title>
            <path fill="currentColor" d="M24.3,0.2v5.1h-3c-1.1,0-1.8,0.2-2.2,0.7c-0.4,0.5-0.6,1.2-0.6,2.1v3.6h5.6l-0.7,5.7h-4.9V32h-5.9V17.4H7.7v-5.7h4.9V7.5c0-2.4,0.7-4.2,2-5.5s3.1-2,5.3-2C21.8,0,23.3,0.1,24.3,0.2z" />
        </symbol>

        <symbol id="folder" viewBox="0 0 32 32">
            <title>Folder</title>
            <path fill="currentColor" d="M32,9.2v13.5c0,2.4-1.9,4.3-4.3,4.3H4.3c-1.1,0-2.2-0.5-3-1.3C0.5,25,0,23.9,0,22.8V4.3c0-1.1,0.5-2.2,1.3-3C2.1,0.5,3.2,0,4.3,0h6.2c1.1,0,2.2,0.5,3,1.3c0.8,0.8,1.3,1.9,1.3,3v0.6h13C30,4.9,32,6.8,32,9.2z" />
        </symbol>

        <symbol id="instagram" viewBox="0 0 32 32">
            <title>Instagram</title>
            <path fill="currentColor" d="M32,16c0,3.2,0,5.4-0.1,6.6c-0.1,2.9-1,5.1-2.6,6.7c-1.6,1.6-3.8,2.4-6.7,2.6C21.4,32,19.2,32,16,32c-3.2,0-5.4,0-6.6-0.1c-2.9-0.1-5.1-1-6.7-2.6c-1.6-1.6-2.4-3.8-2.6-6.7C0,21.4,0,19.2,0,16s0-5.4,0.1-6.6c0.1-2.9,1-5.1,2.6-6.7c1.6-1.6,3.8-2.4,6.7-2.6C10.6,0,12.8,0,16,0c3.2,0,5.4,0,6.6,0.1c2.9,0.1,5.1,1,6.7,2.6c1.6,1.6,2.4,3.8,2.6,6.7C32,10.6,32,12.8,32,16z M17.6,2.9c-1,0-1.5,0-1.6,0c-0.1,0-0.6,0-1.6,0c-1,0-1.7,0-2.2,0c-0.5,0-1.2,0-2,0.1C9.4,3,8.6,3,8.1,3.1C7.5,3.2,7,3.4,6.6,3.5C5.9,3.8,5.3,4.2,4.7,4.7C4.2,5.3,3.8,5.9,3.5,6.6C3.4,7,3.2,7.5,3.1,8.1C3,8.6,3,9.4,2.9,10.2c0,0.8-0.1,1.5-0.1,2c0,0.5,0,1.2,0,2.2c0,1,0,1.5,0,1.6c0,0.1,0,0.6,0,1.6c0,1,0,1.7,0,2.2c0,0.5,0,1.2,0.1,2c0,0.8,0.1,1.6,0.2,2.1c0.1,0.6,0.2,1.1,0.4,1.5c0.3,0.7,0.7,1.3,1.2,1.8c0.5,0.5,1.1,0.9,1.8,1.2c0.4,0.2,0.9,0.3,1.5,0.4s1.3,0.2,2.1,0.2c0.8,0,1.5,0.1,2,0.1c0.5,0,1.2,0,2.2,0c1,0,1.5,0,1.6,0c0.1,0,0.6,0,1.6,0c1,0,1.7,0,2.2,0c0.5,0,1.2,0,2-0.1c0.8,0,1.6-0.1,2.1-0.2c0.6-0.1,1.1-0.2,1.5-0.4c0.7-0.3,1.3-0.7,1.8-1.2c0.5-0.5,0.9-1.1,1.2-1.8c0.2-0.4,0.3-0.9,0.4-1.5c0.1-0.6,0.2-1.3,0.2-2.1c0-0.8,0.1-1.5,0.1-2c0-0.5,0-1.2,0-2.2c0-1,0-1.5,0-1.6c0-0.1,0-0.6,0-1.6c0-1,0-1.7,0-2.2c0-0.5,0-1.2-0.1-2c0-0.8-0.1-1.6-0.2-2.1c-0.1-0.6-0.2-1.1-0.4-1.5c-0.3-0.7-0.7-1.3-1.2-1.8c-0.5-0.5-1.1-0.9-1.8-1.2c-0.4-0.2-0.9-0.3-1.5-0.4C23.4,3,22.6,3,21.8,2.9c-0.8,0-1.5-0.1-2-0.1C19.3,2.9,18.6,2.9,17.6,2.9z M21.8,10.2c1.6,1.6,2.4,3.5,2.4,5.8c0,2.3-0.8,4.2-2.4,5.8c-1.6,1.6-3.5,2.4-5.8,2.4c-2.3,0-4.2-0.8-5.8-2.4c-1.6-1.6-2.4-3.5-2.4-5.8c0-2.3,0.8-4.2,2.4-5.8c1.6-1.6,3.5-2.4,5.8-2.4C18.3,7.8,20.2,8.6,21.8,10.2z M19.8,19.8c1-1,1.6-2.3,1.6-3.8c0-1.5-0.5-2.7-1.6-3.8c-1-1-2.3-1.6-3.8-1.6c-1.5,0-2.7,0.5-3.8,1.6c-1,1-1.6,2.3-1.6,3.8c0,1.5,0.5,2.7,1.6,3.8c1,1,2.3,1.6,3.8,1.6C17.5,21.3,18.7,20.8,19.8,19.8z M25.9,6.1c0.4,0.4,0.6,0.8,0.6,1.4c0,0.5-0.2,1-0.6,1.4c-0.4,0.4-0.8,0.6-1.4,0.6c-0.5,0-1-0.2-1.4-0.6c-0.4-0.4-0.6-0.8-0.6-1.4c0-0.5,0.2-1,0.6-1.4c0.4-0.4,0.8-0.6,1.4-0.6C25.1,5.5,25.5,5.7,25.9,6.1z" />
        </symbol>

        <symbol id="list" viewBox="0 0 32 32">
            <title>List</title>
            <path fill="currentColor" d="M32,6.3v19.4c0,0.8-0.3,1.5-0.8,2c-0.6,0.6-1.2,0.8-2,0.8H2.9c-0.8,0-1.5-0.3-2-0.8c-0.6-0.6-0.8-1.2-0.8-2V6.3,c0-0.8,0.3-1.5,0.8-2c0.6-0.6,1.2-0.8,2-0.8h26.3c0.8,0,1.5,0.3,2,0.8C31.7,4.8,32,5.5,32,6.3z M29.7,25.7V10.9,c0-0.2-0.1-0.3-0.2-0.4c-0.1-0.1-0.2-0.2-0.4-0.2H2.9c-0.2,0-0.3,0.1-0.4,0.2c-0.1,0.1-0.2,0.2-0.2,0.4v14.9c0,0.2,0.1,0.3,0.2,0.4,c0.1,0.1,0.2,0.2,0.4,0.2h26.3c0.2,0,0.3-0.1,0.4-0.2C29.7,26,29.7,25.9,29.7,25.7z M6.9,13.1v1.1c0,0.2-0.1,0.3-0.2,0.4,c-0.1,0.1-0.2,0.2-0.4,0.2H5.1c-0.2,0-0.3-0.1-0.4-0.2c-0.1-0.1-0.2-0.2-0.2-0.4v-1.1c0-0.2,0.1-0.3,0.2-0.4,c0.1-0.1,0.2-0.2,0.4-0.2h1.1c0.2,0,0.3,0.1,0.4,0.2C6.8,12.9,6.9,13,6.9,13.1z M6.9,17.7v1.1c0,0.2-0.1,0.3-0.2,0.4,c-0.1,0.1-0.2,0.2-0.4,0.2H5.1c-0.2,0-0.3-0.1-0.4-0.2c-0.1-0.1-0.2-0.2-0.2-0.4v-1.1c0-0.2,0.1-0.3,0.2-0.4,c0.1-0.1,0.2-0.2,0.4-0.2h1.1c0.2,0,0.3,0.1,0.4,0.2C6.8,17.4,6.9,17.6,6.9,17.7z M6.9,22.3v1.1c0,0.2-0.1,0.3-0.2,0.4,C6.6,23.9,6.4,24,6.3,24H5.1c-0.2,0-0.3-0.1-0.4-0.2c-0.1-0.1-0.2-0.2-0.2-0.4v-1.1c0-0.2,0.1-0.3,0.2-0.4c0.1-0.1,0.2-0.2,0.4-0.2,h1.1c0.2,0,0.3,0.1,0.4,0.2C6.8,22,6.9,22.1,6.9,22.3z M27.4,13.1v1.1c0,0.2-0.1,0.3-0.2,0.4c-0.1,0.1-0.2,0.2-0.4,0.2H9.7,c-0.2,0-0.3-0.1-0.4-0.2c-0.1-0.1-0.2-0.2-0.2-0.4v-1.1c0-0.2,0.1-0.3,0.2-0.4c0.1-0.1,0.2-0.2,0.4-0.2h17.1c0.2,0,0.3,0.1,0.4,0.2,C27.4,12.9,27.4,13,27.4,13.1z M27.4,17.7v1.1c0,0.2-0.1,0.3-0.2,0.4c-0.1,0.1-0.2,0.2-0.4,0.2H9.7c-0.2,0-0.3-0.1-0.4-0.2,c-0.1-0.1-0.2-0.2-0.2-0.4v-1.1c0-0.2,0.1-0.3,0.2-0.4c0.1-0.1,0.2-0.2,0.4-0.2h17.1c0.2,0,0.3,0.1,0.4,0.2,C27.4,17.4,27.4,17.6,27.4,17.7z M27.4,22.3v1.1c0,0.2-0.1,0.3-0.2,0.4C27.1,23.9,27,24,26.9,24H9.7c-0.2,0-0.3-0.1-0.4-0.2,c-0.1-0.1-0.2-0.2-0.2-0.4v-1.1c0-0.2,0.1-0.3,0.2-0.4c0.1-0.1,0.2-0.2,0.4-0.2h17.1c0.2,0,0.3,0.1,0.4,0.2,C27.4,22,27.4,22.1,27.4,22.3z" />
        </symbol>

        <symbol id="map-marker" viewBox="0 0 32 32">
            <title>Location Point</title>
            <path fill="currentColor" d="M26.7,10.7c0,1.5-0.2,2.8-0.7,3.7l-7.6,16.1c-0.2,0.5-0.6,0.8-1,1.1C17,31.9,16.5,32,16,32c-0.5,0-1-0.1-1.4-0.4c-0.4-0.3-0.8-0.6-1-1.1L6,14.4c-0.5-1-0.7-2.2-0.7-3.7c0-2.9,1-5.5,3.1-7.5S13.1,0,16,0c2.9,0,5.5,1,7.5,3.1C25.6,5.2,26.7,7.7,26.7,10.7z M19.8,14.4c1-1,1.6-2.3,1.6-3.8c0-1.5-0.5-2.7-1.6-3.8c-1-1-2.3-1.6-3.8-1.6c-1.5,0-2.7,0.5-3.8,1.6c-1,1-1.6,2.3-1.6,3.8c0,1.5,0.5,2.7,1.6,3.8c1,1,2.3,1.6,3.8,1.6C17.5,16,18.7,15.5,19.8,14.4z" />
        </symbol>

        <symbol id="money" viewBox="0 0 32 32">
            <title>Money</title>
            <path fill="currentColor" d="M32,6.4v19.2c0,0.3-0.1,0.5-0.3,0.7c-0.2,0.2-0.5,0.3-0.8,0.3H1.1c-0.3,0-0.5-0.1-0.7-0.3S0,25.9,0,25.6V6.4c0-0.3,0.1-0.5,0.3-0.7c0.2-0.2,0.5-0.3,0.7-0.3h29.9c0.3,0,0.5,0.1,0.8,0.3C31.9,5.9,32,6.1,32,6.4z M29.9,20.3v-8.5c-1.2,0-2.2-0.4-3-1.3c-0.8-0.8-1.3-1.8-1.3-3H6.4c0,1.2-0.4,2.2-1.3,3c-0.8,0.8-1.8,1.3-3,1.3v8.5c1.2,0,2.2,0.4,3,1.3c0.8,0.8,1.3,1.8,1.3,3h19.2c0-1.2,0.4-2.2,1.3-3C27.7,20.7,28.7,20.3,29.9,20.3z M21,13.6c0.2,0.8,0.3,1.6,0.3,2.4c0,0.8-0.1,1.6-0.3,2.4c-0.2,0.8-0.6,1.5-1,2.2c-0.4,0.7-1,1.3-1.7,1.7c-0.7,0.4-1.5,0.6-2.3,0.6s-1.6-0.2-2.3-0.6c-0.7-0.4-1.3-1-1.7-1.7c-0.4-0.7-0.8-1.4-1-2.2c-0.2-0.8-0.3-1.6-0.3-2.4c0-0.8,0.1-1.6,0.3-2.4c0.2-0.8,0.6-1.5,1-2.2c0.4-0.7,1-1.2,1.7-1.7s1.5-0.7,2.3-0.7s1.6,0.2,2.3,0.7c0.7,0.4,1.3,1,1.7,1.7C20.4,12.1,20.7,12.8,21,13.6z M12.8,20.3h6.4v-1.6h-2.1v-7.5h-1.9l-2.5,2.3l1.3,1.3c0.5-0.4,0.8-0.7,0.9-1h0v4.8h-2.1V20.3z" />
        </symbol>

        <symbol id="phone" viewBox="0 0 32 32">
            <title>Call</title>
            <path fill="currentColor" d="M32,25.3c0,0.4-0.1,0.9-0.2,1.6c-0.2,0.7-0.3,1.2-0.5,1.6c-0.3,0.8-1.2,1.6-2.8,2.4c-1.4,0.8-2.8,1.2-4.2,1.2c-0.4,0-0.8,0-1.2-0.1c-0.4-0.1-0.8-0.1-1.3-0.3c-0.5-0.1-0.8-0.2-1.1-0.3c-0.2-0.1-0.7-0.2-1.3-0.5c-0.6-0.2-1-0.4-1.1-0.4c-1.5-0.5-2.8-1.2-4-1.9c-1.9-1.2-3.9-2.8-6-4.9c-2.1-2.1-3.7-4.1-4.9-6c-0.7-1.2-1.4-2.5-1.9-4c0-0.1-0.2-0.5-0.4-1.1c-0.2-0.6-0.4-1-0.5-1.3c-0.1-0.2-0.2-0.6-0.3-1.1S0.1,9.3,0.1,8.9C0,8.5,0,8.1,0,7.7c0-1.4,0.4-2.8,1.2-4.2C2,1.9,2.8,1,3.6,0.7c0.4-0.2,0.9-0.3,1.6-0.5S6.3,0,6.7,0c0.2,0,0.4,0,0.5,0.1c0.3,0.1,0.7,0.7,1.2,1.7C8.6,2.1,8.8,2.5,9.1,3c0.3,0.5,0.6,1,0.8,1.4c0.2,0.4,0.5,0.8,0.7,1.2c0,0.1,0.2,0.2,0.4,0.6c0.2,0.3,0.4,0.6,0.5,0.8c0.1,0.2,0.2,0.4,0.2,0.6c0,0.3-0.2,0.7-0.6,1.1c-0.4,0.5-0.9,0.9-1.4,1.2c-0.5,0.4-1,0.8-1.4,1.2c-0.4,0.4-0.6,0.8-0.6,1c0,0.1,0,0.3,0.1,0.5c0.1,0.2,0.1,0.4,0.2,0.5c0.1,0.1,0.2,0.3,0.3,0.5c0.2,0.3,0.2,0.4,0.3,0.4c1.2,2.1,2.5,3.9,4,5.3s3.3,2.8,5.3,4c0,0,0.2,0.1,0.4,0.3c0.3,0.2,0.4,0.3,0.5,0.3c0.1,0.1,0.3,0.1,0.5,0.2c0.2,0.1,0.4,0.1,0.5,0.1c0.3,0,0.6-0.2,1-0.6c0.4-0.4,0.8-0.9,1.2-1.4c0.4-0.5,0.8-1,1.3-1.4c0.5-0.4,0.8-0.6,1.1-0.6c0.2,0,0.4,0.1,0.6,0.2c0.2,0.1,0.5,0.3,0.8,0.5c0.3,0.2,0.5,0.4,0.6,0.4c0.4,0.2,0.8,0.5,1.2,0.7c0.4,0.2,0.9,0.5,1.4,0.8c0.5,0.3,0.9,0.5,1.2,0.7c1.1,0.5,1.6,0.9,1.7,1.2C32,24.9,32,25.1,32,25.3z" />
        </symbol>

        <symbol id="pinterest" viewBox="0 0 32 32">
            <title>Pinterest</title>
            <path fill="currentColor" d="M3.7,11.5c0-1.4,0.2-2.7,0.7-3.9c0.5-1.2,1.1-2.3,2-3.2C7.3,3.5,8.2,2.7,9.3,2c1.1-0.7,2.3-1.2,3.6-1.5C14.2,0.2,15.5,0,16.8,0c2,0,3.9,0.4,5.7,1.3c1.7,0.9,3.2,2.1,4.2,3.7s1.6,3.5,1.6,5.5c0,1.2-0.1,2.4-0.4,3.6c-0.2,1.2-0.6,2.3-1.2,3.4c-0.5,1.1-1.2,2-1.9,2.9c-0.8,0.8-1.7,1.5-2.8,2c-1.1,0.5-2.3,0.7-3.6,0.7c-0.9,0-1.7-0.2-2.6-0.6c-0.9-0.4-1.5-1-1.8-1.7c-0.1,0.5-0.3,1.2-0.5,2.2c-0.2,0.9-0.4,1.6-0.5,1.8c-0.1,0.3-0.2,0.7-0.4,1.4c-0.2,0.6-0.4,1.1-0.5,1.4c-0.1,0.3-0.3,0.7-0.6,1.2c-0.3,0.5-0.6,1-0.9,1.5c-0.3,0.5-0.7,1-1.2,1.7L9.2,32L9,31.8c-0.2-2-0.3-3.2-0.3-3.6c0-1.2,0.1-2.5,0.4-4c0.3-1.5,0.7-3.3,1.3-5.5c0.6-2.2,0.9-3.5,1-3.9c-0.4-0.8-0.6-1.9-0.6-3.2c0-1.1,0.3-2.1,1-3c0.7-0.9,1.5-1.4,2.5-1.4c0.8,0,1.4,0.3,1.8,0.8c0.4,0.5,0.7,1.2,0.7,2c0,0.8-0.3,2.1-0.8,3.7c-0.6,1.6-0.8,2.8-0.8,3.6c0,0.8,0.3,1.5,0.9,2c0.6,0.5,1.3,0.8,2.1,0.8c0.7,0,1.4-0.2,2-0.5c0.6-0.3,1.1-0.8,1.5-1.3c0.4-0.6,0.8-1.2,1.1-1.8c0.3-0.7,0.6-1.4,0.7-2.1c0.2-0.7,0.3-1.5,0.4-2.1c0.1-0.7,0.1-1.3,0.1-1.9c0-2.2-0.7-3.9-2.1-5.2c-1.4-1.2-3.2-1.9-5.5-1.9c-2.6,0-4.7,0.8-6.4,2.5s-2.6,3.8-2.6,6.3c0,0.6,0.1,1.1,0.2,1.6c0.2,0.5,0.3,0.9,0.5,1.3c0.2,0.3,0.4,0.6,0.5,0.9c0.2,0.3,0.2,0.5,0.2,0.6c0,0.4-0.1,0.8-0.3,1.4c-0.2,0.6-0.4,0.9-0.7,0.9c0,0-0.1,0-0.3-0.1c-0.7-0.2-1.2-0.6-1.7-1.1c-0.5-0.5-0.9-1.1-1.2-1.8c-0.3-0.7-0.5-1.4-0.6-2.1C3.8,12.8,3.7,12.1,3.7,11.5z" />
        </symbol>

        <symbol id="search" viewBox="0 0 32 32">
            <title>Search</title>
            <path fill="currentColor" d="M32,29.5c0,0.7-0.2,1.2-0.7,1.7c-0.5,0.5-1.1,0.7-1.7,0.7c-0.7,0-1.3-0.2-1.7-0.7l-6.6-6.6c-2.3,1.6-4.9,2.4-7.7,2.4c-1.8,0-3.6-0.4-5.3-1.1c-1.7-0.7-3.1-1.7-4.3-2.9c-1.2-1.2-2.2-2.7-2.9-4.3C0.4,17.1,0,15.4,0,13.5c0-1.8,0.4-3.6,1.1-5.3S2.7,5.2,4,4s2.7-2.2,4.3-2.9C10,0.4,11.7,0,13.5,0c1.8,0,3.6,0.4,5.3,1.1c1.7,0.7,3.1,1.7,4.3,2.9c1.2,1.2,2.2,2.7,2.9,4.3s1.1,3.4,1.1,5.3c0,2.8-0.8,5.4-2.4,7.7l6.6,6.6C31.8,28.3,32,28.9,32,29.5z M19.6,19.6c1.7-1.7,2.5-3.7,2.5-6.1c0-2.4-0.8-4.4-2.5-6.1c-1.7-1.7-3.7-2.5-6.1-2.5c-2.4,0-4.4,0.8-6.1,2.5c-1.7,1.7-2.5,3.7-2.5,6.1c0,2.4,0.8,4.4,2.5,6.1c1.7,1.7,3.7,2.5,6.1,2.5C15.9,22.2,17.9,21.3,19.6,19.6z" />
        </symbol>

        <symbol id="sort" viewBox="0 0 32 32">
            <title>Sort</title>
            <path fill="currentColor" d="M27.6,11.6c0,0.4-0.1,0.7-0.4,1c-0.3,0.3-0.6,0.4-1,0.4H5.8c-0.4,0-0.7-0.1-1-0.4c-0.3-0.3-0.4-0.6-0.4-1s0.1-0.7,0.4-1,L15,0.4C15.3,0.1,15.6,0,16,0c0.4,0,0.7,0.1,1,0.4l10.2,10.2C27.5,10.9,27.6,11.2,27.6,11.6z M27.2,19.3c0.3,0.3,0.4,0.6,0.4,1,c0,0.4-0.1,0.7-0.4,1L17,31.6c-0.3,0.3-0.6,0.4-1,0.4c-0.4,0-0.7-0.1-1-0.4L4.8,21.4c-0.3-0.3-0.4-0.6-0.4-1c0-0.4,0.1-0.7,0.4-1,c0.3-0.3,0.6-0.4,1-0.4h20.4C26.6,18.9,26.9,19.1,27.2,19.3z" />
        </symbol>

        <symbol id="tag" viewBox="0 0 32 32">
            <title>Tag</title>
            <path fill="currentColor" d="M32,18.92a2.58,2.58,0,0,1-.78,1.9L20.85,31.22a2.72,2.72,0,0,1-1.93.78,2.59,2.59,0,0,1-1.9-.78L1.92,16.09A6.34,6.34,0,0,1,.56,14,6.5,6.5,0,0,1,0,11.49V2.7A2.61,2.61,0,0,1,.8.8,2.6,2.6,0,0,1,2.7,0h8.79A6.53,6.53,0,0,1,14,.56a6.61,6.61,0,0,1,2.16,1.36L31.22,17A2.7,2.7,0,0,1,32,18.92ZM8.67,8.67a2.59,2.59,0,0,0,.8-1.91,2.59,2.59,0,0,0-.8-1.91,2.59,2.59,0,0,0-1.91-.79,2.71,2.71,0,0,0-2.7,2.7,2.7,2.7,0,0,0,2.7,2.7A2.6,2.6,0,0,0,8.67,8.67Z" />
        </symbol>

        <symbol id="twitter" viewBox="0 0 32 32">
            <title>Twitter</title>
            <path fill="currentColor" d="M32,6.1c-0.9,1.3-2,2.5-3.3,3.4c0,0.2,0,0.5,0,0.9c0,1.8-0.3,3.5-0.8,5.3c-0.5,1.8-1.3,3.4-2.3,5c-1,1.6-2.3,3-3.7,4.3c-1.4,1.2-3.2,2.2-5.2,3c-2,0.7-4.2,1.1-6.6,1.1C6.4,29,3,28,0,26.1c0.5,0.1,1,0.1,1.6,0.1c3,0,5.8-0.9,8.1-2.8c-1.4,0-2.7-0.5-3.8-1.3c-1.1-0.8-1.9-1.9-2.3-3.2c0.4,0.1,0.9,0.1,1.2,0.1c0.6,0,1.2-0.1,1.7-0.2c-1.5-0.3-2.8-1.1-3.8-2.3c-1-1.2-1.5-2.6-1.5-4.2v-0.1c0.9,0.5,1.9,0.8,3,0.8c-0.9-0.6-1.6-1.4-2.1-2.3s-0.8-2-0.8-3.1c0-1.2,0.3-2.3,0.9-3.3c1.6,2,3.6,3.6,6,4.8s4.9,1.9,7.5,2c-0.1-0.5-0.2-1-0.2-1.5c0-1.8,0.6-3.4,1.9-4.6C18.8,3.6,20.3,3,22.2,3c1.9,0,3.5,0.7,4.8,2.1c1.5-0.3,2.9-0.8,4.2-1.6c-0.5,1.6-1.5,2.8-2.9,3.6C29.5,7,30.7,6.6,32,6.1z" />
        </symbol>

        <symbol id="youtube" viewBox="0 0 32 32">
            <title>YouTube</title>
            <path fill="currentColor" d="M29.2,22.8c0,2.8-0.2,4.9-0.5,6.2c-0.2,0.7-0.5,1.3-1,1.8c-0.5,0.5-1.1,0.7-1.8,0.8C23.7,31.9,20.4,32,16,32c-4.4,0-7.7-0.1-9.9-0.4c-0.7-0.1-1.3-0.3-1.8-0.8c-0.5-0.5-0.9-1.1-1-1.8c-0.3-1.3-0.5-3.4-0.5-6.2c0-2.8,0.2-4.9,0.5-6.2c0.2-0.7,0.5-1.3,1-1.8c0.5-0.5,1.1-0.8,1.8-0.8c2.2-0.2,5.5-0.4,9.9-0.4c4.4,0,7.7,0.1,9.9,0.4c0.7,0.1,1.3,0.4,1.8,0.8c0.5,0.5,0.9,1.1,1,1.8C29.1,17.9,29.2,20,29.2,22.8z M8.4,18.3h1.9v-1.7H4.7v1.7h1.9v10.2h1.8V18.3z M11.4,0h1.8l-2.2,7.1V12H9.3V7.1C9.1,6.2,8.8,5,8.2,3.3C7.8,2.1,7.4,1,7,0h1.9l1.3,4.7L11.4,0z M13.6,28.5h1.6v-8.8h-1.6v6.8c-0.4,0.5-0.7,0.7-1,0.7c-0.2,0-0.3-0.1-0.4-0.4c0,0,0-0.2,0-0.6v-6.5h-1.6v7c0,0.6,0,1,0.1,1.3c0.1,0.4,0.5,0.7,1,0.7c0.6,0,1.2-0.4,1.8-1.1V28.5zM18,5.9v3.1c0,1-0.2,1.7-0.5,2.1c-0.5,0.6-1.1,0.9-1.9,0.9c-0.8,0-1.4-0.3-1.9-0.9c-0.3-0.5-0.5-1.2-0.5-2.1V5.9c0-1,0.2-1.7,0.5-2.1c0.5-0.6,1.1-0.9,1.9-0.9c0.8,0,1.4,0.3,1.9,0.9C17.9,4.3,18,5,18,5.9z M16.4,9.4V5.6c0-0.8-0.3-1.2-0.8-1.2c-0.5,0-0.8,0.4-0.8,1.2v3.7c0,0.8,0.3,1.3,0.8,1.3C16.1,10.6,16.4,10.2,16.4,9.4z M21.2,25.9v-3.5c0-0.9-0.1-1.5-0.2-1.8c-0.2-0.7-0.6-1-1.3-1c-0.6,0-1.2,0.3-1.7,1v-3.9h-1.6v11.8h1.6v-0.9c0.5,0.7,1.1,1,1.7,1c0.6,0,1.1-0.3,1.3-1C21.2,27.3,21.2,26.7,21.2,25.9z M19.6,22.2V26c0,0.8-0.2,1.2-0.7,1.2c-0.3,0-0.5-0.1-0.8-0.4v-5.4c0.3-0.3,0.5-0.4,0.8-0.4C19.4,21,19.6,21.4,19.6,22.2z M24,3.1V12h-1.6v-1c-0.6,0.7-1.2,1.1-1.8,1.1c-0.5,0-0.9-0.2-1.1-0.7c-0.1-0.3-0.1-0.7-0.1-1.3v-7H21v6.6c0,0.4,0,0.6,0,0.6c0,0.3,0.2,0.4,0.4,0.4c0.3,0,0.7-0.3,1-0.8V3.1H24z M27.3,25.7v-0.2h-1.6c0,0.6,0,1,0,1.1c-0.1,0.4-0.3,0.6-0.7,0.6c-0.5,0-0.8-0.4-0.8-1.2v-1.6h3.2v-1.8c0-0.9-0.2-1.6-0.5-2.1c-0.5-0.6-1.1-0.9-1.9-0.9c-0.8,0-1.4,0.3-1.9,0.9c-0.3,0.4-0.5,1.1-0.5,2.1v3.1c0,0.9,0.2,1.6,0.5,2.1c0.5,0.6,1.1,0.9,1.9,0.9c0.9,0,1.5-0.3,1.9-0.9c0.2-0.3,0.3-0.6,0.4-1C27.2,26.6,27.3,26.3,27.3,25.7z M25.7,22.2v0.8h-1.6v-0.8c0-0.8,0.3-1.2,0.8-1.2C25.4,21,25.7,21.4,25.7,22.2z" />
        </symbol>
    </defs>
</svg>
