<svg viewBox="0 0 32 32" xmlns="http://www.w3.org/2000/svg">
    <path d="M31.25,7.75L8.75,7.75C8.336,7.75 8,7.414 8,7L8,5C8,4.586 8.336,4.25 8.75,4.25L31.25,4.25C31.664,4.25 32,4.586 32,5L32,7C32,7.414 31.664,7.75 31.25,7.75ZM32,17L32,15C32,14.586 31.664,14.25 31.25,14.25L8.75,14.25C8.336,14.25 8,14.586 8,15L8,17C8,17.414 8.336,17.75 8.75,17.75L31.25,17.75C31.664,17.75 32,17.414 32,17ZM32,27L32,25C32,24.586 31.664,24.25 31.25,24.25L8.75,24.25C8.336,24.25 8,24.586 8,25L8,27C8,27.414 8.336,27.75 8.75,27.75L31.25,27.75C31.664,27.75 32,27.414 32,27ZM5.75,8L5.75,4C5.75,3.586 5.414,3.25 5,3.25L1,3.25C0.586,3.25 0.25,3.586 0.25,4L0.25,8C0.25,8.414 0.586,8.75 1,8.75L5,8.75C5.414,8.75 5.75,8.414 5.75,8ZM5.75,18L5.75,14C5.75,13.586 5.414,13.25 5,13.25L1,13.25C0.586,13.25 0.25,13.586 0.25,14L0.25,18C0.25,18.414 0.586,18.75 1,18.75L5,18.75C5.414,18.75 5.75,18.414 5.75,18ZM5.75,28L5.75,24C5.75,23.586 5.414,23.25 5,23.25L1,23.25C0.586,23.25 0.25,23.586 0.25,24L0.25,28C0.25,28.414 0.586,28.75 1,28.75L5,28.75C5.414,28.75 5.75,28.414 5.75,28Z" />
</svg>
