<svg viewBox="0 0 32 32" xmlns="http://www.w3.org/2000/svg">
    <path d="M12.438,20.712L11.85,24.125C11.744,24.744 12.394,25.2 12.938,24.913L15.994,23.3L19.05,24.913C19.594,25.2 20.244,24.738 20.138,24.125L19.55,20.712L22.025,18.3C22.469,17.869 22.225,17.112 21.613,17.019L18.194,16.519L16.663,13.419C16.388,12.869 15.594,12.856 15.319,13.419L13.788,16.519L10.369,17.019C9.756,17.106 9.513,17.862 9.956,18.3L12.438,20.712ZM27,4L24,4L24,1C24,0.45 23.55,0 23,0L21,0C20.45,0 20,0.45 20,1L20,4L12,4L12,1C12,0.45 11.55,0 11,0L9,0C8.45,0 8,0.45 8,1L8,4L5,4C3.344,4 2,5.344 2,7L2,29C2,30.656 3.344,32 5,32L27,32C28.656,32 30,30.656 30,29L30,7C30,5.344 28.656,4 27,4ZM27,28.625C27,28.831 26.831,29 26.625,29L5.375,29C5.169,29 5,28.831 5,28.625L5,10L27,10L27,28.625Z" />
</svg>
