<svg viewBox="0 0 260 260" xmlns="http://www.w3.org/2000/svg"><path d="M243.644 20.977a7.312 7.312 0 0 0-5.614-5.614c-14.818-3.175-26.414-3.175-37.965-3.175-47.491 0-75.976 25.402-97.237 58.903H54.877a22.08 22.08 0 0 0-19.742 12.195l-22.733 45.466c-3.681 7.363 1.657 15.968 9.894 15.968H66.06c-2.715 5.891-5.476 11.735-8.284 17.349a7.349 7.349 0 0 0 1.381 8.514l29.268 29.267a7.347 7.347 0 0 0 8.513 1.381c5.614-2.807 11.459-5.522 17.349-8.238v43.764c0 8.191 8.651 13.529 15.968 9.894l45.42-22.733c7.501-3.728 12.195-11.413 12.195-19.742v-48.043c33.409-21.307 58.904-49.884 58.904-97.145.046-11.596.046-23.193-3.13-38.011zm-48.365 64.84c-12.195 0-22.089-9.894-22.089-22.089 0-12.195 9.894-22.089 22.089-22.089 12.195 0 22.089 9.894 22.089 22.089 0 12.195-9.894 22.089-22.089 22.089z"/></svg>