<svg viewBox="0 0 16 16" xmlns="http://www.w3.org/2000/svg">
    <path d="M14.993,1.291C14.956,1.118 14.821,0.983 14.648,0.945C13.736,0.75 13.023,0.75 12.312,0.75C9.389,0.75 7.636,2.313 6.328,4.375L3.377,4.375C2.863,4.375 2.392,4.666 2.162,5.125L0.763,7.923C0.537,8.376 0.865,8.906 1.372,8.906L4.065,8.906C3.898,9.268 3.728,9.628 3.555,9.973C3.468,10.148 3.502,10.36 3.64,10.497L5.442,12.298C5.579,12.437 5.791,12.471 5.965,12.383C6.311,12.211 6.671,12.044 7.033,11.876L7.033,14.57C7.033,15.074 7.565,15.402 8.016,15.179L10.811,13.78C11.272,13.55 11.561,13.077 11.561,12.565L11.561,9.608C13.617,8.297 15.186,6.538 15.186,3.63C15.189,2.916 15.189,2.203 14.993,1.291ZM12.017,5.281C11.267,5.281 10.658,4.672 10.658,3.922C10.658,3.171 11.267,2.562 12.017,2.562C12.768,2.562 13.376,3.171 13.376,3.922C13.376,4.672 12.768,5.281 12.017,5.281Z" />
</svg>
